<?xml version="1.0" standalone="no"?>
<!DOCTYPE svg PUBLIC "-//W3C//DTD SVG 20010904//EN"
 "http://www.w3.org/TR/2001/REC-SVG-20010904/DTD/svg10.dtd">
<svg version="1.0" xmlns="http://www.w3.org/2000/svg"
 width="265.000000pt" height="265.000000pt" viewBox="0 0 265.000000 265.000000"
 preserveAspectRatio="xMidYMid meet">

<g transform="translate(0.000000,265.000000) scale(0.100000,-0.100000)"
fill="#000000" stroke="none">
<path d="M1195 2361 c-64 -27 -81 -110 -32 -158 60 -61 162 -19 162 67 0 66
-72 116 -130 91z m75 -97 c-1 -5 -15 -17 -31 -27 l-29 -19 0 47 0 47 31 -20
c17 -10 30 -23 29 -28z"/>
<path d="M1859 2313 c-122 -172 -313 -446 -399 -573 -55 -80 -110 -158 -123
-174 l-23 -28 -45 71 c-24 39 -62 100 -84 136 l-40 65 -227 0 c-209 0 -251 -5
-218 -25 5 -3 93 -132 196 -287 l186 -281 -16 -31 c-9 -17 -38 -62 -66 -101
-28 -38 -76 -108 -108 -155 -31 -47 -61 -88 -65 -91 -5 -4 -14 -16 -20 -28
-14 -25 -121 -184 -217 -321 -138 -196 -297 -425 -304 -437 -6 -10 43 -13 228
-13 l234 0 49 71 c26 39 53 78 58 87 6 10 13 19 16 22 3 3 36 50 74 105 38 54
88 125 110 157 22 31 93 134 158 228 65 93 122 172 126 175 5 2 30 -30 58 -73
27 -42 69 -107 94 -144 l44 -68 232 0 c128 0 233 3 233 6 0 3 -33 55 -74 114
-41 59 -136 198 -210 309 l-136 202 107 155 c60 86 131 188 158 229 101 147
388 559 464 665 22 30 40 59 39 64 0 5 6 13 14 17 7 5 -91 9 -225 9 l-237 0
-41 -57z"/>
</g>
</svg>
